<svg xmlns="http://www.w3.org/2000/svg" viewBox="0 0 330 330">
  <circle cy="165" cx="165" r="165" fill="#ffffff"/>
  <g transform="translate(0.3,1.2)">
    <path fill="#87C214" d="M 94,144.5 94,264 c 0,9.7 7.9,17.7 17.7,17.7 l 8.3,0 c 9.7,0 17.7,-8 17.7,-17.7 l 0,-119.5 -43.7,0 z"/>
    <path fill="#87C214" d="m 137.7,86.8 0,-22.5 c 0,-9.7 -8,-17.7 -17.7,-17.7 l -8.3,0 C 102,46.6 94,54.6 94,64.3 l 0,22.5 43.7,0 z"/>
    <path fill="#87C214" d="m 234.7,183.8 0,-119.5 c 0,-9.7 -7.9,-17.7 -17.7,-17.7 l -8.3,0 c -9.7,0 -17.7,8 -17.7,17.7 l 0,119.5 43.7,0 z"/>
    <path fill="#87C214" d="m 191,241.5 0,22.5 c 0,9.7 8,17.7 17.7,17.7 l 8.3,0 c 9.7,0 17.7,-8 17.7,-17.7 l 0,-22.5 -43.7,0 z"/>
    <path fill="#95D220" d="m 87,190.8 -22.5,0 c -9.7,0 -17.7,7.9 -17.7,17.7 l 0,8.3 c 0,9.7 7.9,17.7 17.7,17.7 l 22.5,0 0,-43.7 z"/>
    <path fill="#95D220" d="m 264.2,190.8 -119.5,0 0,43.7 119.5,0 c 9.7,0 17.7,-8 17.7,-17.7 l 0,-8.3 c -0.1,-9.7 -8,-17.7 -17.7,-17.7 z"/>
    <path fill="#95D220" d="m 184,93.8 -119.5,0 c -9.7,0 -17.7,7.9 -17.7,17.7 l 0,8.3 c 0,9.7 7.9,17.7 17.7,17.7 l 119.5,0 0,-43.7 z"/>
    <path fill="#95D220" d="m 264.2,93.8 -22.5,0 0,43.7 22.5,0 c 9.7,0 17.7,-7.9 17.7,-17.7 l 0,-8.3 c -0.1,-9.7 -8,-17.7 -17.7,-17.7 z"/>
  </g>
</svg>
