<svg width="30" height="30" viewBox="0 0 30 30" fill="none" xmlns="http://www.w3.org/2000/svg">
<rect x="8.43164" y="10.5834" width="6.05791" height="5.58903" fill="#202126"/>
<path fill-rule="evenodd" clip-rule="evenodd" d="M1.59989 0.00118013C1.5602 0.0148898 1.56231 0.148836 1.56697 0.444077C1.5689 0.56669 1.57128 0.717121 1.57128 0.898313C1.57127 4.04594 4.11492 4.68615 4.11492 4.68615C4.11492 4.68615 1.57127 4.43476 1.57128 5.11295C1.57128 5.79113 3.79427 6.66009 3.79427 6.66009C3.79427 6.66009 0 7.26229 0 7.94048C0 8.1553 0.257181 8.19936 0.720776 8.27879C1.31424 8.38046 2.24597 8.54009 3.40946 9.19009C1.80521 11.3575 0.85702 14.0369 0.85702 16.9369C0.85702 24.1514 6.72527 30 13.9641 30C16.5704 30 18.9991 29.2418 21.0402 27.9347C20.8826 27.7172 20.8243 27.4213 20.9356 27.1258C21.5439 25.5108 21.7958 24.3331 21.7303 23.3085C21.6657 22.2971 21.2884 21.3864 20.5393 20.3112C20.1272 19.7197 19.7153 19.2652 19.3213 18.8593C19.2176 18.7524 19.1127 18.6467 19.0083 18.5414L19.0079 18.541C18.725 18.2557 18.4456 17.9739 18.2011 17.6827C17.8555 17.271 17.5568 16.8165 17.3478 16.2325C17.1398 15.6512 17.0283 14.9632 17.0283 14.0912C17.0283 11.7227 18.6211 9.82324 20.5582 9.03094C21.7644 8.53756 23.1318 8.46403 24.3579 8.97735C21.9616 5.87376 18.1972 3.87377 13.9641 3.87377C13.8176 3.87377 13.6717 3.87617 13.5263 3.88092C4.88053 3.74926 2.46854 0.957164 1.80777 0.192266C1.69465 0.0613284 1.63286 -0.0102049 1.59989 0.00118013ZM12.137 14.938C11.7974 14.8185 11.432 14.7535 11.0513 14.7535C10.7158 14.7535 10.392 14.804 10.0874 14.8979C9.85645 14.969 9.74099 15.0046 9.65233 14.9877C9.57532 14.9731 9.50292 14.9323 9.45058 14.8741C9.39034 14.8072 9.37014 14.7257 9.32974 14.5629C9.26826 14.315 9.23499 14.0501 9.23499 13.7748C9.23499 12.3857 10.0824 11.2595 11.1278 11.2595C12.1732 11.2595 13.0207 12.3857 13.0207 13.7748C13.0207 14.0735 12.9815 14.3601 12.9096 14.6259C12.8654 14.7893 12.8433 14.871 12.7805 14.9371C12.7261 14.9944 12.6513 15.0336 12.5731 15.0458C12.4829 15.0598 12.3676 15.0192 12.137 14.938Z" fill="url(#paint0_linear_1831_2777)"/>
<path d="M20.907 20.058C19.1822 17.5823 17.4756 17.4286 17.4756 14.0913C17.4756 9.77257 23.296 7.07396 26.0413 10.9057C27.22 12.5509 27.616 15.0892 27.616 17.0746C27.616 21.5079 25.3674 25.421 21.9348 27.766C21.6074 27.9897 21.2151 27.652 21.3544 27.2821C22.5873 24.009 22.4634 22.292 20.907 20.058Z" fill="url(#paint1_radial_1831_2777)"/>
<defs>
<linearGradient id="paint0_linear_1831_2777" x1="27.1371" y1="0.0562001" x2="-3.89939" y2="42.1753" gradientUnits="userSpaceOnUse">
<stop stop-color="#69E1B9"/>
<stop offset="1" stop-color="#818BEF"/>
</linearGradient>
<radialGradient id="paint1_radial_1831_2777" cx="0" cy="0" r="1" gradientUnits="userSpaceOnUse" gradientTransform="translate(19.0615 21.6581) rotate(-61.2194) scale(20.9026 17.1921)">
<stop stop-color="#D7821F"/>
<stop offset="1" stop-color="#BF36D6"/>
</radialGradient>
</defs>
</svg>
