<svg width="325" height="325" viewBox="0 0 325 325" fill="none" xmlns="http://www.w3.org/2000/svg">
<circle cx="162.5" cy="162.5" r="162.5" fill="black"/>
<path fill-rule="evenodd" clip-rule="evenodd" d="M188.31 217.307C211.3 217.258 229.879 198.556 229.879 175.475V109.675H221.937V175.425C221.986 182.758 219.633 189.845 215.32 195.702C204.241 210.663 183.163 213.764 168.261 202.641C174.731 195.062 178.31 185.416 178.261 175.425V121.634C178.114 113.07 171.202 106.131 162.673 105.983C153.898 105.836 146.643 112.824 146.496 121.634V175.425C146.545 185.416 150.173 195.111 156.741 202.641C150.957 206.923 143.947 209.285 136.741 209.285C118.065 209.334 102.869 194.176 102.82 175.425V109.675H94.8785V175.524C94.8785 198.605 113.751 217.356 136.741 217.356C146.153 217.356 155.271 214.157 162.624 208.301C169.928 214.157 178.996 217.307 188.31 217.307ZM162.379 113.661C166.79 113.661 170.32 117.254 170.32 121.634V175.425C170.32 183.398 167.526 191.125 162.379 197.227C157.28 191.125 154.437 183.398 154.437 175.425V121.634C154.437 117.204 158.016 113.661 162.379 113.661Z" fill="white"/>
</svg>
